<svg height="512" viewBox="0 0 512 512" width="512" xmlns="http://www.w3.org/2000/svg"><g id="Solid"><path d="m24 120v272a96 96 0 0 0 96 96h272a96 96 0 0 0 96-96v-272a96 96 0 0 0 -96-96h-272a96 96 0 0 0 -96 96zm152 287.988.06-40.278 16 .023-.048 32.267h207.988v-288h-207.988l.046 32.267-16 .023-.058-40.279a8 8 0 0 1 8-8.011h224a8 8 0 0 1 8 8v304a8 8 0 0 1 -8 8h-224a8 8 0 0 1 -8-8.012zm-80-159.988h228.687l-66.344-66.343 11.314-11.314 80 80a8 8 0 0 1 0 11.314l-80 80-11.314-11.314 66.344-66.343h-228.687z"/></g></svg>